<?xml version="1.0" encoding="utf-8" ?>
<!DOCTYPE svg PUBLIC '-//W3C//DTD SVG 20001102//EN' 'http://www.w3.org/TR/2000/CR-SVG-20001102/DTD/svg-20001102.dtd'>
<svg xmlns="http://www.w3.org/2000/svg" width="663" height="184">
<rect x="14" y="14" width="313" height="81" style="fill:#ffffff; stroke:#ffffff; stroke-width:1"/>
<rect x="14" y="14" width="313" height="2" style="fill:#ffffff; stroke:#ffffff; stroke-width:1"/>
<rect x="14" y="16" width="313" height="20" style="fill:#ffffff; stroke:#ffffff; stroke-width:1"/>
<text x="137" y="29" style="font-family:Dialog; font-size:10;">
BeagleService</text>
<rect x="15" y="58" width="312" height="37" style="fill:#ffffff; stroke:#ffffff; stroke-width:1"/>
<line x1="15" y1="58" x2="327" y2="58" style="fill:#000000; stroke:#000000; stroke-width:1"/>
<text x="18" y="72" style="font-family:Dialog; font-size:10;">
execute(query : String) : Search</text>
<text x="18" y="85" style="font-family:Dialog; font-size:10;">
executeWithOrder(query : String,order : String = score) : Search</text>
<rect x="15" y="37" width="312" height="20" style="fill:#ffffff; stroke:#ffffff; stroke-width:1"/>
<line x1="15" y1="37" x2="327" y2="37" style="fill:#000000; stroke:#000000; stroke-width:1"/>
<rect x="14" y="14" width="313" height="81" style="fill: none; stroke:#000000; stroke-width:1"/>
<rect x="382" y="14" width="105" height="130" style="fill:#ffffff; stroke:#ffffff; stroke-width:1"/>
<rect x="382" y="14" width="105" height="2" style="fill:#ffffff; stroke:#ffffff; stroke-width:1"/>
<rect x="382" y="16" width="105" height="20" style="fill:#ffffff; stroke:#ffffff; stroke-width:1"/>
<text x="418" y="29" style="font-family:Dialog; font-size:10;">
Search</text>
<rect x="383" y="124" width="104" height="20" style="fill:#ffffff; stroke:#ffffff; stroke-width:1"/>
<line x1="383" y1="124" x2="487" y2="124" style="fill:#000000; stroke:#000000; stroke-width:1"/>
<rect x="383" y="37" width="104" height="86" style="fill:#ffffff; stroke:#ffffff; stroke-width:1"/>
<line x1="383" y1="37" x2="487" y2="37" style="fill:#000000; stroke:#000000; stroke-width:1"/>
<text x="386" y="51" style="font-family:Dialog; font-size:10;">
first_hit : double</text>
<text x="386" y="64" style="font-family:Dialog; font-size:10;">
total_time : double</text>
<text x="386" y="77" style="font-family:Dialog; font-size:10;">
order : String</text>
<text x="386" y="90" style="font-family:Dialog; font-size:10;">
number_of_hits : int</text>
<text x="386" y="103" style="font-family:Dialog; font-size:10;">
results[] : Item</text>
<text x="386" y="116" style="font-family:Dialog; font-size:10;">
key : String</text>
<rect x="382" y="14" width="105" height="130" style="fill: none; stroke:#000000; stroke-width:1"/>
<rect x="551" y="14" width="98" height="156" style="fill:#ffffff; stroke:#ffffff; stroke-width:1"/>
<rect x="551" y="14" width="98" height="2" style="fill:#ffffff; stroke:#ffffff; stroke-width:1"/>
<rect x="551" y="16" width="98" height="20" style="fill:#ffffff; stroke:#ffffff; stroke-width:1"/>
<text x="589" y="29" style="font-family:Dialog; font-size:10;">
Item</text>
<rect x="552" y="150" width="97" height="20" style="fill:#ffffff; stroke:#ffffff; stroke-width:1"/>
<line x1="552" y1="150" x2="649" y2="150" style="fill:#000000; stroke:#000000; stroke-width:1"/>
<rect x="552" y="37" width="97" height="112" style="fill:#ffffff; stroke:#ffffff; stroke-width:1"/>
<line x1="552" y1="37" x2="649" y2="37" style="fill:#000000; stroke:#000000; stroke-width:1"/>
<text x="555" y="51" style="font-family:Dialog; font-size:10;">
uri : String</text>
<text x="555" y="64" style="font-family:Dialog; font-size:10;">
pa_uri : String</text>
<text x="555" y="77" style="font-family:Dialog; font-size:10;">
type : String</text>
<text x="555" y="90" style="font-family:Dialog; font-size:10;">
mime_type : String</text>
<text x="555" y="103" style="font-family:Dialog; font-size:10;">
source : String</text>
<text x="555" y="116" style="font-family:Dialog; font-size:10;">
snip : String</text>
<text x="555" y="129" style="font-family:Dialog; font-size:10;">
divers : String</text>
<text x="555" y="142" style="font-family:Dialog; font-size:10;">
time : Date</text>
<rect x="551" y="14" width="98" height="156" style="fill: none; stroke:#000000; stroke-width:1"/>
<polyline style="fill:none; stroke:#000000; stroke-width:1" points="487,102 551,102"/>
<polygon style="fill:#ffffff; stroke:#ffffff; stroke-width:1" points="487,102 497,97 507,102 497,107"/>
<polygon style="fill:none; stroke:#000000; stroke-width:1" points="487,102 497,97 507,102 497,107"/>
<text x="527" y="92" style="font-family:Dialog; font-size:10;">
0..*</text>
</svg>
